<?xml version="1.0" encoding="UTF-8"?>
<svg version="1.1" xmlns="http://www.w3.org/2000/svg" width="1024" height="1024">
<path d="M0 0 C337.92 0 675.84 0 1024 0 C1024 337.92 1024 675.84 1024 1024 C686.08 1024 348.16 1024 0 1024 C0 686.08 0 348.16 0 0 Z " fill="#0473E8" transform="translate(0,0)"/>
<path d="M0 0 C2.04153948 -0.00542961 4.08307504 -0.01255694 6.12460327 -0.02124023 C11.63489296 -0.03937555 17.14488092 -0.03244695 22.65517545 -0.01972389 C28.44044849 -0.00954666 34.22569693 -0.0190025 40.01097107 -0.02526855 C49.7223674 -0.03253066 59.43364175 -0.02299439 69.14501953 -0.00390625 C80.35082188 0.01786577 91.5563331 0.01080279 102.76212841 -0.01121187 C112.40838335 -0.02939951 122.05455097 -0.03190793 131.70081753 -0.0214572 C137.45115771 -0.01524156 143.20136133 -0.01433351 148.95169258 -0.02760315 C154.35849042 -0.03921026 159.76491504 -0.03104732 165.17167282 -0.00802612 C167.14847 -0.00276521 169.12529892 -0.0042076 171.10208321 -0.01307678 C191.16287786 -0.09474281 203.53458734 4.43103448 217.96313477 18.62695312 C220.83526947 21.49319867 223.68615066 24.38005306 226.53686523 27.26757812 C228.07208871 28.81095421 229.60806202 30.35358476 231.14474487 31.89550781 C235.16927687 35.93706875 239.18514083 39.98712641 243.19873047 44.03955078 C249.6259281 50.52618257 256.06597801 57.00004787 262.50667953 63.4732666 C264.74278656 65.72322639 266.97497167 67.9770181 269.20657349 70.23144531 C270.58888084 71.62378536 271.97127192 73.01604229 273.35375977 74.40820312 C273.96383881 75.02659058 274.57391785 75.64497803 275.20248413 76.28210449 C278.89158179 79.98985639 282.70558625 83.4918367 286.67401505 86.8993578 C292.02059378 91.56338293 297.00364163 96.64550059 302.04760742 101.63110352 C303.44926142 103.01115112 304.85714457 104.38490112 306.27124023 105.75219727 C325.93067191 124.76986543 325.93067191 124.76986543 326.65210056 137.72768021 C326.65117877 138.53517086 326.65025698 139.34266151 326.64930725 140.17462158 C326.65136925 141.57120499 326.65136925 141.57120499 326.6534729 142.9960022 C326.64987762 144.01020233 326.64628235 145.02440247 326.64257812 146.06933594 C326.64272415 147.14281281 326.64287018 148.21628967 326.64302063 149.32229614 C326.64232376 152.87178567 326.63454187 156.42122276 326.62670898 159.97070312 C326.624844 162.43121309 326.62342048 164.89172342 326.62242126 167.35223389 C326.6186024 173.82951888 326.60877746 180.30678147 326.59771729 186.78405762 C326.58748964 193.3931447 326.58292074 200.00223541 326.57788086 206.61132812 C326.56715466 219.58008769 326.55027788 232.54883171 326.52905273 245.51757812 C322.71579571 243.93606378 318.90358909 242.35203223 315.09155273 240.76757812 C314.02227539 240.32414063 312.95299805 239.88070312 311.85131836 239.42382812 C310.79750977 238.98554688 309.74370117 238.54726563 308.65795898 238.09570312 C307.69962158 237.69770508 306.74128418 237.29970703 305.75390625 236.88964844 C301.65816185 235.14704237 297.5964687 233.32531855 293.52905273 231.51757812 C293.52905273 203.79757812 293.52905273 176.07757813 293.52905273 147.51757812 C268.26448322 147.59662447 268.26448322 147.59662447 243 147.69775391 C238.08947754 147.70678711 238.08947754 147.70678711 235.78330994 147.70846558 C234.18869406 147.71151647 232.5940825 147.71850811 230.99949646 147.72872925 C214.26705985 147.83052712 200.1979342 145.75752379 187.49780273 133.72460938 C179.36595965 124.60855512 175.35358814 113.97613256 175.41552734 101.8815918 C175.41538132 101.12983673 175.41523529 100.37808167 175.41508484 99.60354614 C175.41577878 97.13084987 175.42354684 94.65822991 175.43139648 92.18554688 C175.43326251 90.46633444 175.43468554 88.74712148 175.4356842 87.02790833 C175.43949488 82.51191733 175.44931276 77.99595871 175.46038818 73.47998047 C175.4706335 68.86816852 175.47518851 64.25635131 175.48022461 59.64453125 C175.49093636 50.60219935 175.50799534 41.55989143 175.52905273 32.51757812 C150.48578455 32.55474348 125.44265959 32.61460242 100.39951229 32.70148087 C88.7715475 32.74129087 77.14365059 32.77367343 65.515625 32.78857422 C55.3806831 32.80158053 45.24589042 32.82851919 35.11103255 32.87219119 C29.74463637 32.89482884 24.3784244 32.91048742 19.01197624 32.90946198 C13.9599082 32.90871673 8.9082477 32.92661312 3.8562851 32.95874596 C2.00319083 32.96725785 0.15005091 32.96898615 -1.70305443 32.96338081 C-4.23655816 32.95673874 -6.768766 32.97466556 -9.30213928 32.99859619 C-10.03270241 32.99083577 -10.76326554 32.98307536 -11.51596695 32.97507977 C-16.99634501 33.06650229 -20.05363591 34.49773833 -24.47094727 37.51757812 C-28.14134609 42.41144322 -28.59546944 46.70604529 -28.60516834 52.70338058 C-28.60962619 53.98133397 -28.61408403 55.25928735 -28.61867696 56.5759666 C-28.61858767 57.99715727 -28.61839782 59.41834793 -28.61811829 60.83953857 C-28.62141776 62.34696715 -28.6251435 63.85439485 -28.62925977 65.36182141 C-28.63927819 69.51031646 -28.6429963 73.65879704 -28.64564908 77.80730247 C-28.64955251 82.27914418 -28.65913073 86.75097444 -28.66786194 91.22280884 C-28.68762377 102.02438503 -28.69769157 112.82596216 -28.70658973 123.62755191 C-28.71097252 128.7130997 -28.7163393 133.79864645 -28.7215786 138.88419342 C-28.73858953 155.78713642 -28.75308451 172.69007877 -28.76032734 189.59302902 C-28.76223725 193.97933706 -28.76415759 198.3656451 -28.76611328 202.75195312 C-28.76683889 204.3872599 -28.76683889 204.3872599 -28.76757916 206.05560318 C-28.77588254 223.72299355 -28.80122527 241.39031629 -28.83369396 259.05767712 C-28.86674997 277.19228275 -28.88477472 295.32685399 -28.88797158 313.46148992 C-28.89013787 323.64513293 -28.89890417 333.82867728 -28.92443275 344.01229095 C-28.94611971 352.68348133 -28.9542 361.35454906 -28.94446597 370.02576348 C-28.93991564 374.45006042 -28.94185004 378.87410419 -28.96122742 383.29836655 C-28.97881942 387.34996286 -28.97789381 391.40112056 -28.96233013 395.45272127 C-28.95994803 396.91707345 -28.96430883 398.38145569 -28.97615878 399.84576187 C-29.03650203 407.79594528 -28.9495389 413.79459283 -24.47094727 420.51757812 C-18.30018018 425.7907251 -11.45237234 425.09364111 -3.64111328 425.06347656 C-2.24107214 425.07222036 -0.84104099 425.08270896 0.55897522 425.09480286 C4.34364401 425.1225852 8.12798548 425.12606928 11.91274142 425.12508297 C15.8739542 425.12821879 19.835021 425.15385088 23.79615784 425.17706299 C31.2899415 425.21757541 38.78363824 425.23795247 46.27751452 425.25103688 C54.8120542 425.26692309 63.34644631 425.30534551 71.88090026 425.34563017 C89.4302641 425.42796407 106.97953411 425.47912215 124.52905273 425.51757812 C124.52905273 436.07757812 124.52905273 446.63757813 124.52905273 457.51757812 C106.12595297 457.60810001 87.72303529 457.68168851 69.31976891 457.72482681 C60.7735633 457.74539486 52.22750652 457.7734044 43.68139648 457.81933594 C36.22693132 457.85938105 28.77257401 457.88505271 21.31800425 457.8939321 C17.37596371 457.89911716 13.43423155 457.91118152 9.4922905 457.94049835 C5.77073609 457.96794802 2.04961273 457.97596459 -1.67203331 457.97000885 C-3.66611145 457.97160866 -5.66014425 457.992975 -7.65409851 458.01525879 C-23.2022862 457.94532317 -36.18284041 453.54407464 -47.65844727 443.01757812 C-59.87746046 430.24053126 -61.77792492 415.29803841 -61.7383728 398.279953 C-61.74211444 396.74615945 -61.746718 395.21236781 -61.75210345 393.67857915 C-61.76428512 389.48486307 -61.76407872 385.29122706 -61.7617147 381.09749734 C-61.76130531 376.56635406 -61.7723572 372.03523603 -61.78182983 367.50410461 C-61.79841366 358.63505768 -61.80393817 349.76603734 -61.80505459 340.8969762 C-61.80600619 333.68574694 -61.81012208 326.47452643 -61.81645584 319.26329994 C-61.83406018 298.80267004 -61.84329584 278.34206109 -61.84179489 257.88142356 C-61.84171498 256.77933064 -61.84163507 255.67723772 -61.84155273 254.54174805 C-61.84147097 253.4383044 -61.84138921 252.33486076 -61.84130497 251.19797943 C-61.84049204 233.31448263 -61.85963377 215.43107005 -61.88782947 197.54759761 C-61.91657514 179.16982058 -61.93036887 160.7920846 -61.92864192 142.41428453 C-61.92797866 132.10258666 -61.93344311 121.79097712 -61.95499802 111.47929955 C-61.97323183 102.70042773 -61.97753897 93.9216843 -61.96397917 85.14280172 C-61.95746098 80.66721792 -61.95729071 76.19188025 -61.97468567 71.71632004 C-61.99047217 67.61226737 -61.98749635 63.50865487 -61.97011741 59.40461258 C-61.96705976 57.92689524 -61.97063291 56.44914459 -61.98183756 54.97146656 C-62.09181413 39.42739891 -58.53584526 25.8020157 -47.72094727 14.26757812 C-33.77868898 1.19506374 -18.12880639 -0.08142937 0 0 Z " fill="#FDFDFE" transform="translate(349.470947265625,254.482421875)"/>
<path d="M0 0 C2.72410583 2.00930786 2.72410583 2.00930786 5.34936523 4.68408203 C5.83496918 5.17041611 6.32057312 5.65675018 6.82089233 6.15782166 C8.41465208 7.76081876 9.9861978 9.38387793 11.55859375 11.0078125 C12.67145817 12.1344296 13.78574596 13.25964229 14.90138245 14.3835144 C17.83290802 17.34356133 20.74642529 20.32070625 23.65600586 23.30230713 C27.17408426 26.90174441 30.7109062 30.4827409 34.24712467 34.06434441 C37.00328411 36.85598823 39.75591375 39.6507769 42.49742126 42.45681763 C47.31838608 47.3780163 52.15282925 52.19053246 57.4657135 56.59078979 C60.30968963 59.20292266 61.35638067 61.43080898 61.5625 65.1875 C61.44807754 70.2220881 59.44706491 72.65048845 56.00390625 76.15625 C53.64282688 78.32862712 51.27029321 80.46471451 48.7734375 82.48046875 C44.00325789 86.56769313 39.74633356 91.30114917 35.36196899 95.79193115 C32.22161383 99.00190313 29.07012341 102.20077706 25.91481972 105.39605331 C23.52528681 107.81698093 21.14173006 110.24325323 18.77050781 112.68212891 C16.02260177 115.50787442 13.25037778 118.30904899 10.4765625 121.109375 C9.63155182 121.98535339 8.78654114 122.86133179 7.91592407 123.76385498 C1.26812056 130.41540477 1.26812056 130.41540477 -2.91650391 131.12988281 C-6.55234167 130.9767343 -8.20646036 130.31464713 -11 128 C-12.74310754 125.1366652 -13.24712299 123.02241615 -13.22705078 119.69042969 C-13.22689972 118.84986023 -13.22674866 118.00929077 -13.22659302 117.14324951 C-13.21627045 116.24519592 -13.20594788 115.34714233 -13.1953125 114.421875 C-13.1924826 113.4953009 -13.18965271 112.56872681 -13.18673706 111.61407471 C-13.17555611 108.65925091 -13.15045527 105.70473195 -13.125 102.75 C-13.11496751 100.74479605 -13.10584213 98.73958734 -13.09765625 96.734375 C-13.07562358 91.82279949 -13.04110795 86.91145141 -13 82 C-30.49878058 84.07421701 -30.49878058 84.07421701 -47 90 C-47.95003906 90.45375 -48.90007812 90.9075 -49.87890625 91.375 C-56.59008163 94.80992704 -62.35274338 99.02397039 -68 104 C-68.82371094 104.71671875 -69.64742187 105.4334375 -70.49609375 106.171875 C-85.15936032 119.80573908 -94.99633033 139.60949279 -96.15234375 159.63964844 C-97.03933511 185.26482886 -91.01868514 206.21273814 -74.25 225.8125 C-59.69154416 241.08878417 -39.57744126 249.74299658 -18.66796875 251.23828125 C3.67458385 251.71472177 25.3795164 244.04850103 41.84545898 228.74609375 C48.19067748 222.53962943 52.80410544 215.84407328 57 208 C57.48082031 207.13117188 57.96164062 206.26234375 58.45703125 205.3671875 C63.02235848 196.34687327 64.54191762 186.36393477 66.48901367 176.53027344 C66.65506104 175.72879883 66.8211084 174.92732422 66.9921875 174.1015625 C67.21237549 173.01222412 67.21237549 173.01222412 67.43701172 171.90087891 C68.26488938 169.10562502 69.67484943 167.6910186 72 166 C75.63554581 164.7881514 79.02407752 164.7390198 82.8125 164.6875 C83.51181641 164.65849609 84.21113281 164.62949219 84.93164062 164.59960938 C90.07016955 164.53712025 92.92792325 165.62181974 97 169 C101.35085076 175.52627614 99.62112223 186.85775905 98.34765625 194.40625 C92.89287851 221.55517242 75.99869894 246.99844463 53.02612305 262.46679688 C25.14286712 280.64936267 -6.61589173 287.59039482 -39.6328125 281.54711914 C-59.29975711 277.35651208 -76.97156074 268.23438682 -92 255 C-93.08076847 254.14259035 -94.16364219 253.28781671 -95.25 252.4375 C-114.78404 235.12323727 -126.71174193 209.64634489 -130 184 C-130.26578451 179.37074812 -130.28026624 174.76077956 -130.25 170.125 C-130.25773438 168.94808594 -130.26546875 167.77117187 -130.2734375 166.55859375 C-130.19756458 132.07435069 -115.5248321 103.59393269 -91.56640625 79.55859375 C-72.46820453 61.52662989 -44.29530284 48.90808084 -17.82104492 48.98583984 C-16.91875656 48.98788422 -16.0164682 48.98992859 -15.08683777 48.99203491 C-14.3981813 48.99466339 -13.70952484 48.99729187 -13 49 C-13.01332367 48.44733963 -13.02664734 47.89467926 -13.04037476 47.32527161 C-13.17324555 41.5666128 -13.26366303 35.80839008 -13.32958984 30.04858398 C-13.35974019 27.89996654 -13.40066808 25.75147195 -13.45263672 23.60327148 C-13.52552773 20.51254977 -13.55947388 17.42345641 -13.5859375 14.33203125 C-13.61690521 13.37351761 -13.64787292 12.41500397 -13.67977905 11.42744446 C-13.6829734 5.07974157 -13.6829734 5.07974157 -11.87042236 2.21420288 C-7.96243089 -1.56856471 -4.98243323 -1.24463746 0 0 Z " fill="#FDFEFE" transform="translate(646,539)"/>
<path d="M0 0 C1.20463112 -0.00445668 1.20463112 -0.00445668 2.43359822 -0.0090034 C5.12185501 -0.01766789 7.81006715 -0.01919674 10.49833679 -0.02069092 C12.42695714 -0.02532064 14.35557657 -0.03034551 16.28419495 -0.03573608 C21.52187194 -0.04884619 26.75953612 -0.05530219 31.99722695 -0.05974674 C35.27029038 -0.06267937 38.54335031 -0.06678451 41.81641197 -0.07125092 C52.05943896 -0.08492144 62.30245795 -0.09459059 72.54549342 -0.09845281 C84.36546962 -0.10293429 96.18533021 -0.12048829 108.00527126 -0.1494534 C117.14512662 -0.17107281 126.28494947 -0.18115721 135.42483014 -0.18249393 C140.88228786 -0.18354165 146.33963686 -0.18944283 151.79706764 -0.20731354 C156.93116945 -0.22379889 162.06508083 -0.22594741 167.19919968 -0.21717453 C169.08092827 -0.21640444 170.96266713 -0.22074315 172.84436989 -0.23063278 C175.41860775 -0.2433662 177.99217254 -0.23746809 180.56640625 -0.22705078 C181.67611148 -0.23913539 181.67611148 -0.23913539 182.80823499 -0.25146413 C188.12049984 -0.20138788 192.1180607 0.94860238 196.97367859 3.14044189 C201.74654567 8.15807139 202.33534959 11.62886039 202.24711609 18.37872314 C201.85747997 22.31404793 200.6871927 24.28777321 197.97367859 27.14044189 C192.62590892 30.7846475 188.91013115 31.7234349 182.51029968 31.64837646 C181.68438009 31.65461643 180.8584605 31.66085639 180.00751305 31.66728544 C177.25375269 31.68317686 174.50088223 31.6706265 171.74711609 31.65802002 C169.76731349 31.66344285 167.78751493 31.67056641 165.807724 31.67926025 C160.43997023 31.69747727 155.07252439 31.69043267 149.70476532 31.67774391 C144.08394549 31.66760791 138.46315181 31.67701127 132.84233093 31.68328857 C123.40364352 31.69056321 113.96508136 31.68098203 104.52641296 31.66192627 C93.61828512 31.64015795 82.71045634 31.64720945 71.80233574 31.66923189 C62.43228536 31.68739106 53.06232494 31.68994166 43.69226265 31.67947721 C38.0979281 31.67324516 32.50373406 31.67239883 26.90940857 31.68562317 C21.64962025 31.69718847 16.39021705 31.68914322 11.13047028 31.66604614 C9.20156748 31.66076273 7.2726322 31.66226653 5.34374237 31.6710968 C2.70774506 31.68205044 0.07297679 31.66829128 -2.5629425 31.64837646 C-3.32374933 31.65729935 -4.08455616 31.66622224 -4.86841774 31.67541552 C-10.31989786 31.59569168 -13.50974098 30.21188684 -18.02632141 27.14044189 C-20.8467844 23.71205957 -21.90491882 19.99026002 -22.52632141 15.64044189 C-21.74011688 10.13701019 -20.00451783 5.71285443 -15.58882141 2.20294189 C-10.46507144 0.0784602 -5.48259545 -0.00636383 0 0 Z " fill="#FEFEFE" transform="translate(394.0263214111328,484.85955810546875)"/>
<path d="M0 0 C1.20751419 -0.00686325 2.41502838 -0.0137265 3.65913391 -0.02079773 C6.95052731 -0.03589952 10.24156305 -0.03757751 13.53297615 -0.03185534 C16.2888718 -0.02875154 19.04471688 -0.03486897 21.8006053 -0.04089409 C28.30510181 -0.05490876 34.80946688 -0.05340306 41.31396484 -0.04199219 C48.00787442 -0.03050802 54.70138348 -0.04459827 61.39524031 -0.07138866 C67.15941407 -0.09358816 72.9234625 -0.10017369 78.68767595 -0.09431225 C82.12299229 -0.09095228 85.55805183 -0.09329345 88.99333191 -0.11056328 C92.8252838 -0.12546334 96.65635661 -0.11480208 100.48828125 -0.09765625 C101.615793 -0.10732422 102.74330475 -0.11699219 103.90498352 -0.12695312 C110.27592568 -0.06735229 115.51930302 0.49816463 120.74414062 4.40405273 C124.35559033 8.54874906 125.40687944 12.66814592 125.12695312 18.12670898 C124.4708543 22.02982749 123.15752652 25.25776745 120.74414062 28.40405273 C115.89311861 31.53700446 111.42630338 32.52517196 105.73005676 32.54449463 C104.7194519 32.55020477 103.70884705 32.55591492 102.6676178 32.5617981 C101.01323952 32.56347488 101.01323952 32.56347488 99.32543945 32.56518555 C98.15912994 32.57015045 96.99282043 32.57511536 95.79116821 32.58023071 C91.92783012 32.59485033 88.0645331 32.60165452 84.20117188 32.60717773 C82.86779951 32.60991442 81.53442738 32.61277088 80.20105553 32.61574554 C73.93424438 32.62941527 67.66744626 32.63908364 61.40062124 32.64294744 C54.18321411 32.6474225 46.96599691 32.6649468 39.74864751 32.69394803 C34.15950889 32.71562143 28.57042347 32.72565478 22.98124331 32.72698855 C19.64810148 32.72803286 16.31527981 32.73532281 12.98215675 32.75180817 C9.25789747 32.76891113 5.53409735 32.7669775 1.80981445 32.76049805 C0.71701675 32.76971283 -0.37578094 32.77892761 -1.50169373 32.78842163 C-8.15770261 32.75224696 -15.60689 32.59317241 -20.87669659 27.98747635 C-24.76275471 23.52587381 -25.68524987 19.55068983 -25.59179688 13.82202148 C-25.01345826 9.65932846 -23.34977815 6.25303628 -20.25585938 3.40405273 C-13.44153796 0.1858788 -7.46379014 -0.02979956 0 0 Z " fill="#FAFCFE" transform="translate(397.255859375,553.595947265625)"/>
<path d="M0 0 C1.04570663 -0.0071553 2.09141327 -0.01431061 3.16880798 -0.02168274 C4.31070084 -0.02437164 5.45259369 -0.02706055 6.62908936 -0.02983093 C8.43948448 -0.03968773 8.43948448 -0.03968773 10.28645325 -0.04974365 C14.28445688 -0.0694702 18.28242044 -0.08114144 22.28045654 -0.09111023 C23.65966562 -0.09515968 25.03887451 -0.09927666 26.41808319 -0.10346031 C32.89899713 -0.12250113 39.37989975 -0.13673438 45.86083627 -0.14507228 C53.32903687 -0.15484038 60.79694074 -0.18115305 68.26503682 -0.22157317 C74.04608888 -0.25178314 79.8270561 -0.26654576 85.60818553 -0.26985329 C89.05701176 -0.27219825 92.50552059 -0.28108564 95.95426178 -0.30631447 C99.80560184 -0.33403444 103.65655472 -0.32974912 107.50799561 -0.32279968 C108.64179153 -0.33560974 109.77558746 -0.3484198 110.94374084 -0.36161804 C117.70663375 -0.31718955 122.06191592 0.541778 127.82733154 4.14717102 C131.39270648 7.82755805 131.73003948 10.96020784 132.13983154 15.95967102 C132.03716674 20.55392087 130.89426463 23.71331443 127.82733154 27.14717102 C121.16241949 31.51979722 114.38708014 31.71663482 106.64154053 31.64888 C105.45338745 31.65428299 104.26523437 31.65968597 103.04107666 31.66525269 C99.80746484 31.67556058 96.57452752 31.66810447 93.34096026 31.65154147 C89.94278303 31.63760085 86.54463418 31.64416112 83.1464386 31.64767456 C77.44305853 31.65036925 71.73988982 31.63696404 66.03656006 31.61372375 C59.45912253 31.58710577 52.88203785 31.58537367 46.30456489 31.59711212 C39.95442759 31.60792042 33.60441691 31.60167981 27.25428963 31.58755684 C24.56189005 31.58182469 21.86958399 31.58185769 19.17718315 31.58662224 C15.41248329 31.5895395 11.64835551 31.57300188 7.88372803 31.55122375 C6.22286919 31.55797623 6.22286919 31.55797623 4.52845764 31.56486511 C-3.14718892 31.49126446 -9.17450035 30.82638507 -15.11016846 25.52217102 C-17.68192435 21.31384319 -18.45515031 18.05208313 -18.17266846 13.14717102 C-16.50669351 7.26725943 -14.04681558 4.52923229 -9.17266846 1.14717102 C-6.09295727 0.11910128 -3.23331771 0.01522231 0 0 Z " fill="#FEFEFE" transform="translate(390.17266845703125,417.8528289794922)"/>
<path d="M0 0 C7.09515446 5.79904189 13.46818621 12.32301832 19.93359375 18.80078125 C21.17897697 20.04549009 22.42450854 21.29005051 23.67018127 22.5344696 C26.26636699 25.12918795 28.8607523 27.7256894 31.45385742 30.32348633 C34.78518523 33.66054669 38.12103057 36.99304957 41.45820522 40.32426167 C44.02408603 42.88654126 46.58759567 45.45118243 49.15037727 48.01656151 C50.38049901 49.24735189 51.61136832 50.47739555 52.84298515 51.70668983 C54.5545667 53.41574826 56.2629381 55.12795036 57.97045898 56.84106445 C58.48310303 57.35168427 58.99574707 57.86230408 59.52392578 58.38839722 C63 61.8857302 63 61.8857302 63 63 C55.43800758 63.15243235 47.87641291 63.25733476 40.31323242 63.32958984 C37.74179275 63.35971821 35.17045546 63.40062942 32.59936523 63.45263672 C28.89801747 63.52561903 25.19803104 63.55949789 21.49609375 63.5859375 C19.77851112 63.63238907 19.77851112 63.63238907 18.02622986 63.67977905 C11.75908567 63.68240741 7.89095602 63.20334915 3.2872467 58.78018188 C0.48692726 54.9075148 -0.24999505 51.37398294 -0.22705078 46.65893555 C-0.22689972 45.6182341 -0.22674866 44.57753265 -0.22659302 43.5052948 C-0.21110916 41.83784966 -0.21110916 41.83784966 -0.1953125 40.13671875 C-0.1924826 38.98959915 -0.18965271 37.84247955 -0.18673706 36.66059875 C-0.17555697 33.00279232 -0.15045595 29.34523222 -0.125 25.6875 C-0.11496741 23.20508167 -0.10584205 20.72265949 -0.09765625 18.24023438 C-0.07562471 12.16007244 -0.04216848 6.08005382 0 0 Z " fill="#0573EA" transform="translate(556,307)"/>
<path d="M0 0 C0.33 0 0.66 0 1 0 C1.00089563 1.16028465 1.00089563 1.16028465 1.00180936 2.3440094 C1.03769631 48.18017206 1.09432452 94.01626881 1.17792095 139.85237056 C1.18793852 145.35486787 1.19778263 150.85736547 1.20751953 156.35986328 C1.2094609 157.45532042 1.21140228 158.55077756 1.21340248 159.67943037 C1.24443114 177.42140467 1.26140555 195.16336604 1.27319422 212.90536237 C1.28560128 231.10767769 1.31309265 249.30992506 1.35461307 267.51219749 C1.37976116 278.74572472 1.39311632 289.97913928 1.39142957 301.21269506 C1.39139984 308.9139507 1.40601025 316.61509148 1.43216428 324.31630236 C1.4468249 328.76080005 1.45500061 333.20506221 1.44580269 337.64958 C1.4375217 341.71987664 1.44765403 345.78969984 1.47233662 349.85992622 C1.47802496 351.33111164 1.47699744 352.80234185 1.46851245 354.27351379 C1.42665953 362.21131936 1.48216322 368.30399518 6 375 C10.70279165 378.13519443 15.46007451 378.12316503 20.99850464 378.15821838 C22.17632004 378.1680072 23.35413544 378.17779602 24.56764221 378.18788147 C26.48491371 378.19651466 26.48491371 378.19651466 28.44091797 378.20532227 C29.81124663 378.21491062 31.1815724 378.22492125 32.55189514 378.23532104 C36.26008065 378.26227253 39.96827877 378.28333467 43.67650747 378.30332303 C47.55626291 378.32524302 51.43597994 378.3526022 55.31570435 378.37937927 C62.6572135 378.42922505 69.99874406 378.47419387 77.34029496 378.51740164 C85.70063895 378.56684351 94.06094439 378.6217358 102.42125106 378.67708123 C119.61413171 378.79077664 136.80704819 378.89764261 154 379 C154 379.33 154 379.66 154 380 C135.47605671 380.09349493 116.95216139 380.16400447 98.42803097 380.20724869 C89.82669621 380.2278626 81.22550816 380.25596071 72.62426758 380.30175781 C65.12628806 380.34166155 57.62841481 380.36744133 50.13033205 380.37635398 C46.16112997 380.38156278 42.19223189 380.39378062 38.22312737 380.42292023 C34.48435883 380.45014544 30.74601844 380.45843081 27.00716019 380.45243073 C24.986687 380.45404944 22.96626006 380.47553497 20.94590759 380.49768066 C14.09933328 380.4666405 9.48536379 380.2705347 4 376 C0.04668685 370.90230673 -1.12491041 367.28187047 -1.12584114 360.91769218 C-1.12844889 359.63741296 -1.13105664 358.35713373 -1.13374341 357.03805816 C-1.13158114 355.60910203 -1.12932448 354.18014604 -1.12698364 352.75119019 C-1.12813513 351.2396364 -1.12972284 349.72808289 -1.13171089 348.21652997 C-1.13590035 344.05225506 -1.13381524 339.88800295 -1.13072467 335.72372794 C-1.12846929 331.23701047 -1.13195085 326.75029701 -1.13470459 322.26358032 C-1.13915956 313.47046098 -1.13818709 304.67735016 -1.13529195 295.88423048 C-1.13303714 288.7413837 -1.13272573 281.59853932 -1.13381577 274.45569229 C-1.133969 273.44060527 -1.13412223 272.42551825 -1.13428011 271.37967101 C-1.13459982 269.31781935 -1.13492403 267.25596768 -1.1352527 265.19411601 C-1.13810662 245.84461388 -1.13482169 226.49511647 -1.12945233 207.14561512 C-1.12498303 190.52464599 -1.12576144 173.90368384 -1.13037109 157.28271484 C-1.13571609 138.00118842 -1.13783336 118.71966614 -1.13475883 99.43813908 C-1.13444027 97.38431811 -1.13412589 95.33049715 -1.13381577 93.27667618 C-1.13366149 92.2660375 -1.13350721 91.25539881 -1.13334826 90.21413472 C-1.13248298 83.07466948 -1.13394619 75.93520686 -1.13629532 68.79574203 C-1.13909262 60.10276406 -1.13835648 51.40979513 -1.13301457 42.7168182 C-1.13037682 38.27728424 -1.12937375 33.83776537 -1.13266373 29.39823151 C-1.1356251 25.34092767 -1.13403656 21.28365303 -1.12868617 17.22635187 C-1.12756132 15.7520058 -1.12815466 14.2776573 -1.13056196 12.80331276 C-1.13356544 10.81241866 -1.12991289 8.82151774 -1.12584114 6.83062553 C-1.12559761 5.16590275 -1.12559761 5.16590275 -1.12534916 3.4675492 C-1 1 -1 1 0 0 Z " fill="#306CE2" transform="translate(321,300)"/>
<path d="M0 0 C1.13503755 3.40511264 0.72193287 4.56583466 0 8 C-0.0930629 10.15573834 -0.13362207 12.31401285 -0.1386652 14.47175312 C-0.14413964 15.7879817 -0.14961409 17.10421029 -0.15525442 18.46032459 C-0.15633057 19.91945725 -0.15731528 21.37858999 -0.15821838 22.83772278 C-0.16278493 24.38883949 -0.16778509 25.93995497 -0.17318195 27.49106902 C-0.18676191 31.75535977 -0.19418102 36.01964254 -0.20060861 40.28394926 C-0.20861316 44.88173251 -0.22231076 49.47949918 -0.23532104 54.07727051 C-0.257083 62.04388217 -0.27522853 70.01049552 -0.29092598 77.97712135 C-0.31362715 89.49556138 -0.34176965 101.01398304 -0.37124526 112.53240748 C-0.41891812 131.21975769 -0.46218314 149.9071154 -0.50268555 168.59448242 C-0.54204202 186.74878524 -0.58346862 204.90308139 -0.62768555 223.05737305 C-0.63040982 224.17618277 -0.63313409 225.2949925 -0.63594092 226.44770554 C-0.64962042 232.06037918 -0.66334069 237.67305271 -0.67708123 243.28572619 C-0.79104121 289.85713688 -0.89785163 336.42856201 -1 383 C-3.19489304 379.70766044 -3.25547351 378.71891128 -3.2784729 374.8943634 C-3.28963701 373.83440281 -3.30080112 372.77444221 -3.31230354 371.6823616 C-3.3144631 370.51592495 -3.31662266 369.3494883 -3.31884766 368.14770508 C-3.32888762 366.91432278 -3.33892757 365.68094048 -3.34927177 364.41018295 C-3.37498095 360.9980066 -3.39177889 357.58599923 -3.4046917 354.17376447 C-3.42049473 350.5408403 -3.44747607 346.90799753 -3.47302246 343.27513123 C-3.52062677 336.23579573 -3.55732313 329.19644421 -3.58992171 322.1570248 C-3.61660061 316.4329887 -3.6472725 310.70898646 -3.68060303 304.98498535 C-3.80628707 283.34013331 -3.90879411 261.69525443 -3.99206543 240.05019855 C-3.99962243 238.09755973 -4.00737445 236.14492165 -4.01513672 234.19228363 C-4.13712962 203.46091733 -4.13057973 172.73132055 -4 142 C-3.99468262 140.71960594 -3.98936523 139.43921188 -3.98388672 138.12001801 C-3.90086085 118.2022467 -3.79382873 98.28469821 -3.66626704 78.36716354 C-3.63357156 73.20617654 -3.60524861 68.04517705 -3.57867432 62.88415527 C-3.54267763 55.93605775 -3.49589003 48.98809917 -3.44206238 42.04011726 C-3.42359753 39.46597485 -3.40837731 36.89180684 -3.3966217 34.31762505 C-3.37973313 30.76459606 -3.35076602 27.21185697 -3.31884766 23.65893555 C-3.3166881 22.63346241 -3.31452854 21.60798927 -3.31230354 20.55144119 C-3.11157725 3.11157725 -3.11157725 3.11157725 0 0 Z " fill="#024FDA" transform="translate(289,288)"/>
<path d="M0 0 C0.33 0 0.66 0 1 0 C1.0093457 1.26070312 1.01869141 2.52140625 1.02832031 3.8203125 C1.06837372 8.52460278 1.13417501 13.22824963 1.20751953 17.93212891 C1.23564035 19.96296892 1.25689886 21.99391657 1.27099609 24.02490234 C1.29254898 26.95465855 1.33926222 29.88313265 1.390625 32.8125 C1.39185364 33.71178223 1.39308228 34.61106445 1.39434814 35.53759766 C1.52855849 41.39295217 2.51395716 46.17428491 6 51 C9.18762365 53.12508244 11.26512223 53.5020163 15 54 C13.4375 55.25 13.4375 55.25 11 56 C5.83724905 53.78739245 2.32805636 51.28418906 0 46 C-0.53847608 42.44281424 -0.46663907 38.94228175 -0.390625 35.3515625 C-0.38496521 34.33903412 -0.37930542 33.32650574 -0.37347412 32.28329468 C-0.35116254 29.06337323 -0.30097472 25.8445826 -0.25 22.625 C-0.22992831 20.43621404 -0.21167871 18.24741056 -0.1953125 16.05859375 C-0.15131505 10.70534622 -0.08445518 5.35275392 0 0 Z " fill="#003DDB" transform="translate(321,624)"/>
<path d="M0 0 C2.00535378 0.65038501 4.00340982 1.32318977 6 2 C6.928125 2.30292969 7.85625 2.60585938 8.8125 2.91796875 C9.8025 3.25441406 10.7925 3.59085938 11.8125 3.9375 C12.76769531 4.25589844 13.72289062 4.57429687 14.70703125 4.90234375 C15.46371094 5.26457031 16.22039062 5.62679687 17 6 C17.33 6.99 17.66 7.98 18 9 C10.7948042 7.85631813 5.69453105 5.61755118 0 1 C0 0.67 0 0.34 0 0 Z " fill="#0A5BE0" transform="translate(309,704)"/>
<path d="M0 0 C-5.75 3 -5.75 3 -8 3 C-8 4.32 -8 5.64 -8 7 C-9.4375 8.625 -9.4375 8.625 -11 10 C-11.33 10.66 -11.66 11.32 -12 12 C-12.66 12 -13.32 12 -14 12 C-13.49430263 7.57514805 -12.10058108 5.18438057 -9 2 C-3.71223022 -1.23741007 -3.71223022 -1.23741007 0 0 Z " fill="#105DDF" transform="translate(335,288)"/>
<path d="M0 0 C0.99 0.33 1.98 0.66 3 1 C4.01529541 3.32671865 5.01488198 5.6603447 6 8 C9.18762365 10.12508244 11.26512223 10.5020163 15 11 C13.4375 12.25 13.4375 12.25 11 13 C5.60473303 10.68774273 2.81528251 8.29273113 0 3 C0 2.01 0 1.02 0 0 Z " fill="#0D56DE" transform="translate(321,667)"/>
<path d="M0 0 C0.99 0.66 1.98 1.32 3 2 C1.35 3.98 -0.3 5.96 -2 8 C-3.32 7.67 -4.64 7.34 -6 7 C-4.02 4.69 -2.04 2.38 0 0 Z " fill="#197EEE" transform="translate(654,661)"/>
<path d="M0 0 C1.15224028 0.92961422 2.29659176 1.8690125 3.4375 2.8125 C4.07558594 3.33457031 4.71367188 3.85664062 5.37109375 4.39453125 C7 6 7 6 8 9 C10.00016466 10.20882096 10.00016466 10.20882096 12 11 C11.34 11.66 10.68 12.32 10 13 C9.67 12.01 9.34 11.02 9 10 C8.4225 9.731875 7.845 9.46375 7.25 9.1875 C3.90788997 7.4236086 2.2646887 5.01958493 0 2 C0 1.34 0 0.68 0 0 Z " fill="#1C6FE8" transform="translate(540,780)"/>
<path d="M0 0 C0.66 0.33 1.32 0.66 2 1 C-1.66666667 4.66666667 -5.33333333 8.33333333 -9 12 C-7.64408662 5.4669628 -7.64408662 5.4669628 -4.5 3.1875 C-3.675 2.795625 -2.85 2.40375 -2 2 C-1.34 1.34 -0.68 0.68 0 0 Z " fill="#074FDB" transform="translate(304,265)"/>
<path d="M0 0 C0.99 0.33 1.98 0.66 3 1 C2.67 1.99 2.34 2.98 2 4 C1.34 4 0.68 4 0 4 C-0.33 5.32 -0.66 6.64 -1 8 C-2.2077558 4.37673261 -1.54311128 3.35853631 0 0 Z " fill="#1A73E9" transform="translate(554,676)"/>
</svg>
